<svg xmlns="http://www.w3.org/2000/svg" width="1400" height="900" viewBox="0 0 1400 900">
  <defs>
    <linearGradient id="bg" x1="0" y1="0" x2="0" y2="1">
      <stop offset="0" stop-color="#0b1220"/>
      <stop offset="1" stop-color="#070b14"/>
    </linearGradient>
    <linearGradient id="g1" x1="0" y1="0" x2="1" y2="1">
      <stop offset="0" stop-color="#7c5cff" stop-opacity="0.85"/>
      <stop offset="1" stop-color="#22c55e" stop-opacity="0.55"/>
    </linearGradient>
    <linearGradient id="g2" x1="0" y1="0" x2="1" y2="0">
      <stop offset="0" stop-color="#ffffff" stop-opacity="0.16"/>
      <stop offset="1" stop-color="#ffffff" stop-opacity="0.04"/>
    </linearGradient>
    <radialGradient id="glow" cx="35%" cy="20%" r="70%">
      <stop offset="0" stop-color="#7c5cff" stop-opacity="0.22"/>
      <stop offset="1" stop-color="#7c5cff" stop-opacity="0"/>
    </radialGradient>
  </defs>

  <rect width="1400" height="900" fill="url(#bg)"/>
  <rect width="1400" height="900" fill="url(#glow)"/>
  <circle cx="1120" cy="240" r="280" fill="#22c55e" opacity="0.14"/>
  <circle cx="380" cy="260" r="320" fill="#7c5cff" opacity="0.18"/>

  <rect x="130" y="160" width="1140" height="580" rx="36" fill="rgba(255,255,255,0.04)" stroke="rgba(255,255,255,0.14)"/>
  <rect x="190" y="230" width="520" height="320" rx="28" fill="url(#g1)" opacity="0.16"/>
  <rect x="750" y="230" width="460" height="140" rx="26" fill="url(#g2)"/>
  <rect x="750" y="400" width="460" height="150" rx="26" fill="rgba(0,0,0,0.22)" stroke="rgba(255,255,255,0.10)"/>

  <path d="M230 610c120-130 260-210 420-240" fill="none" stroke="rgba(255,255,255,0.28)" stroke-width="8" stroke-linecap="round"/>
  <path d="M260 610c100-100 220-160 360-190" fill="none" stroke="rgba(255,255,255,0.18)" stroke-width="8" stroke-linecap="round"/>

  <text x="210" y="210" fill="rgba(255,255,255,0.92)" font-family="Inter,Segoe UI,Arial" font-size="40" font-weight="800">Signature spaces</text>
  <text x="210" y="252" fill="rgba(255,255,255,0.70)" font-family="Inter,Segoe UI,Arial" font-size="22" font-weight="600">Warm light • Calm design • Modern comfort</text>

  <rect x="200" y="290" width="510" height="290" rx="28" fill="rgba(0,0,0,0.22)" stroke="rgba(255,255,255,0.10)"/>
  <rect x="240" y="330" width="210" height="200" rx="22" fill="rgba(255,255,255,0.07)" stroke="rgba(255,255,255,0.12)"/>
  <rect x="480" y="330" width="190" height="200" rx="22" fill="rgba(255,255,255,0.07)" stroke="rgba(255,255,255,0.12)"/>

  <text x="790" y="300" fill="rgba(255,255,255,0.90)" font-family="Inter,Segoe UI,Arial" font-size="22" font-weight="800">Boutique details</text>
  <text x="790" y="335" fill="rgba(255,255,255,0.66)" font-family="Inter,Segoe UI,Arial" font-size="18" font-weight="600">A visual highlight for your brochure section</text>
</svg>
